<svg xmlns="http://www.w3.org/2000/svg" viewBox="0 0 315 36" enable-background="new 0 0 315 36"><g fill-rule="evenodd" clip-rule="evenodd" fill="#003F87"><path d="M220.89 22.45c.906 2.31.824 5.778-.497 7.84-1.155 1.733-3.467 2.065-5.447 1.652l-.246-.413V19.726c.492-.742 1.898-.496 2.64-.248 1.568.496 2.807 1.567 3.55 2.97zm-1.815-16.093c1.65 1.404 1.65 4.043 1.237 6.107-.413 1.32-1.073 2.228-2.31 2.723-.99.25-2.062.58-3.054.25l-.246-.5V5.782c.578-.744 1.898-.33 2.805-.33l1.568.907zm11.307 0c.907 1.65 1.154 4.043.412 5.943-1.156 2.888-4.292 4.21-7.1 5.282.992.66 2.396.907 3.55 1.57 3.056 1.648 5.944 4.455 5.366 8.497-.33 2.723-2.065 5.034-4.457 6.52-2.56 1.322-5.53 1.57-8.584 1.485-6.027-.082-12.05.166-17.828-.163-.247-1.074-.495-2.725.496-3.303.74-.166 1.65.082 2.228-.496l-.082-25.336c0-1.485-1.9-.413-2.642-1.156-.247-.907-.578-2.64.33-3.217 6.768-.166 13.783-.415 20.55-.084 3.137.496 6.024 1.816 7.76 4.457zM180.524 16.32c.245 1.32 1.073 3.383-.167 4.373-1.237.826-2.723 1.403-4.21 1.32-.08-2.477-.493-5.61 1.983-6.85 1.07-.247 1.898.413 2.394 1.156zm7.262-.248c1.073 1.733 1.898 3.795 1.815 5.942-4.208 1.238-8.417 2.476-12.707 3.467-.412.66.163 1.57.412 2.31.99 1.816 3.053 3.3 5.448 3.137 1.815-.33 3.3-1.65 4.54-2.97.824.494 1.568 1.238 2.226 2.227-1.732 3.054-5.283 4.87-8.912 5.364-4.54.578-8.502-.906-11.144-4.457-2.722-3.3-2.805-8.746-1.073-12.542 1.82-4.374 6.027-6.933 10.732-6.933 3.463.247 6.6 1.568 8.664 4.457zm-82.055.33c.496 1.24.826 3.22 0 4.374-1.236.908-2.805 1.072-4.29 1.485-.66-1.32 0-2.97 0-4.456.41-.99.657-2.23 1.896-2.56 1.074-.326 1.898.416 2.395 1.158zm8.172 1.403c.412 1.403 1.402 2.97.908 4.457l-12.628 3.302c-.66.577.082 1.484.246 2.227 1.322 1.982 3.056 3.385 5.613 3.22 1.9-.33 3.304-1.567 4.542-2.97.905.33 1.4 1.403 2.146 2.145-.25 1.485-1.404 1.98-2.31 2.97-3.468 2.395-8.832 3.55-13.043 1.735-3.96-1.652-7.013-5.695-7.013-10.4-.167-5.116 2.558-9.985 7.43-11.885 5.196-2.062 12.045-.163 14.11 5.2zm51.187-2.02c.33 1.484-.084 2.97-.91 3.96-.905.825-1.897 1.238-3.052 1.238-1.485-.082-2.89-.743-3.796-1.98-.662-1.238-1.074-2.477-1.652-3.797-.99.248-1.32 1.403-1.568 2.228-.99 4.54-.577 10.234 3.136 12.957 1.404.66 3.383.33 4.458-.576.99-.66 1.32-2.146 2.392-1.98.66.494 1.405 1.485 2.065 1.65-.992 3.135-3.633 4.87-6.603 5.86-4.376 1.155-9.74.33-12.464-3.3-2.475-3.056-3.465-7.842-2.063-11.803 1.652-4.868 5.612-8.086 10.978-8.416 3.632-.167 7.758.576 9.08 3.96zM80.057 15.4c.25 1.072.497 2.145.826 3.22.66-.908 1.07-2.23 1.816-3.22 1.154-1.65 2.888-2.97 5.035-2.89 1.155 0 2.228.33 3.053 1.073.99 1.156 1.155 2.97.826 4.457-.248 1.404-1.57 2.23-2.642 2.806-1.568.496-3.3.083-4.54-.908-.907.413-1.072 1.485-1.402 2.31-.66 3.053-1.074 6.52-.827 9.82.827.248 1.816.248 2.642.578-.166.99.66 2.56-.414 3.137l-13.634.055c-.33-.907-.312-2.367-.147-3.274.742-.495 1.98.082 2.393-.742-.33-4.54 1.154-9.904-1.486-13.535-.496-.495-1.32-.247-1.98-.412 0-.99-.58-2.393.495-2.89l6.355-1.98s1.65-.66 2.393-.33l1.238 2.725zm60.31.227c1.983 3.878.662 9.077 1.155 13.616-.164.908.168 1.733.084 2.724.576.577 1.815.082 2.062 1.072l-.165 2.475c-3.88.33-8.255.247-12.297.083-.167-.99-.167-2.146 0-3.054 2.06 0 1.154-2.23 1.4-3.548-.164-3.384.25-6.932-.328-10.15-.33-.744-.908-1.157-1.734-1.404-3.96.66-1.65 5.777-2.31 8.748l.167 5.777 1.154.577c.167.908.167 2.064 0 2.97l-.494.168c-3.88 0-7.842.247-11.72-.167-.332-.825-.25-2.063-.083-2.888l1.897-.578c.332-4.128.166-8.502.166-12.71-.166-.66-.66-1.24-1.238-1.486-.33-.082-.908.247-1.074-.248.083-.908-.41-2.145.414-2.64 3.135-.826 6.19-1.9 9.408-2.477.662.824.662 1.897 1.156 2.722 1.65-1.32 3.63-2.89 6.107-2.97 2.643 0 4.952 1.155 6.274 3.385zm-81.75.59c.827 3.88.58 8.337.415 12.463-.33 1.485-.248 3.63-2.146 3.88-.908 0-1.57-.496-1.9-1.156-.907-4.704-.99-10.564.084-15.268.247-.413.66-1.073 1.32-1.156.91-.165 1.983.33 2.23 1.238zm9.163 1.982c1.817 4.208 1.57 9.902-1.568 13.286-2.97 3.548-7.923 5.2-12.627 4.044-4.21-.908-7.346-4.127-8.584-8.17-1.155-5.035.25-10.4 4.375-13.37 3.632-2.806 9.658-3.218 13.702-.826 2.146 1.238 3.467 2.972 4.704 5.035zm-38.57-5.243c-.06.33-2.643 1.32-3.3-.082-1.82-3.548-4.872-7.428-9.577-7.262-.907.082-2.145-.33-2.557.66v10.07c1.32.824 2.89 0 3.878-.827 1.074-.743.99-2.393 1.816-3.3.99.164 2.23-.414 3.055.33L22.36 25.17c-.908.414-2.063.25-3.055.167-.825-2.064-1.485-4.54-4.044-4.952-.41-.083-.907-.083-1.237 0l-.247.33c-.165 3.548-.165 7.428-.083 11.224.826.66 2.063.246 2.89.66.246.99.246 2.145 0 3.052l-.413.248H.652c-.824-.66-.495-2.23-.33-3.3.826-.497 2.147-.084 2.807-.826.165-8.502.41-17.084.165-25.667-.745-.577-1.817-.33-2.643-.66-.247-.908-.33-2.23.083-3.136 7.922-.082 16.424 0 24.595-.082L27.15 2c.092-.012.18.047.202.138 0 0 2.45 7.527 1.857 10.82zM31.478 2.1c2.258-.674 6.69-1.387 10.116-1.877l.248 1.568-.248 30.29c.33.824 1.485.33 2.146.824.247.99.247 1.98-.083 2.89H30.7c-.414-.826-.25-1.983-.166-2.89.577-.577 1.98 0 2.146-1.072V7.322c-.165-.744-.21-1.573-1.156-1.817H30.37s.824-3.32 1.108-3.404zM282.8 15.542c1.982 3.878.66 9.077 1.154 13.616-.164.908.168 1.733.084 2.724.576.577 1.815.082 2.062 1.072l-.164 2.476c-3.88.33-8.255.247-12.297.083-.168-.99-.168-2.146 0-3.054 2.06 0 1.153-2.23 1.4-3.55-.165-3.383.25-6.93-.33-10.15-.33-.743-.907-1.156-1.733-1.403-3.96.66-1.65 5.777-2.31 8.748l.167 5.777 1.154.577c.167.907.167 2.063 0 2.97l-.494.167c-3.88 0-7.842.247-11.72-.167-.332-.825-.25-2.063-.083-2.888l1.898-.578c.332-4.127.166-8.5.166-12.71-.166-.66-.66-1.238-1.238-1.485-.33-.083-.908.246-1.074-.25.082-.907-.412-2.144.413-2.64 3.135-.825 6.19-1.898 9.408-2.476.662.825.662 1.898 1.156 2.723 1.65-1.32 3.63-2.89 6.106-2.97 2.643 0 4.952 1.155 6.274 3.385zM314.76 32.23l-1.816-.577c-2.558-4.623-5.118-9.245-7.922-13.784 0-.66.742-.743 1.237-1.073.658.825 1.403 1.98 2.475 2.64.992.744 2.725.826 3.88.248 1.154-.66 2.063-2.063 2.23-3.548-.084-1.238-.497-2.642-1.405-3.384-1.897-1.403-4.787-.908-6.768-.166-3.755 1.39-5.57 5.114-7.367 8.23l.157-19.15L299.214.1c-3.426.488-7.858 1.202-10.116 1.877-.284.085-1.11 3.404-1.11 3.404h1.156c.945.244.992 1.074 1.156 1.817v24.51c-.165 1.073-1.57.497-2.146 1.073-.083.907-.248 2.064.165 2.89h12.957c.33-.91.33-1.9.083-2.89-.66-.495-1.815 0-2.146-.825l.064-7.877c.04-.01.078-.018.13-.018 1.982 3.798 3.136 7.758 5.447 11.308h9.326l.58-.25c.165-.906.165-2.062 0-2.887zM256.042 30.968c-1.487-5.777 1.4-13.536-4.21-17.002-4.045-2.722-10.48-3.63-14.938-1.072-.908.742-1.322 1.817-1.322 3.054 0 .99.66 2.063 1.485 2.558 1.407.826 3.384.743 4.704-.248 1.323-.66 1.49-2.476 2.148-3.794 1.157.247 2.065 1.072 2.478 2.227.33.743.575 1.9.246 2.642-4.045.826-8.5 2.063-10.813 5.528-1.24 1.652-1.65 4.046-.99 6.19.742 2.394 2.805 4.045 5.2 4.457 3.138.58 6.107-.412 8.087-2.56l1.733 1.984c2.478 1.403 6.9-.078 7.966-.868l.206-2.515c-.496-1.074-1.404-.166-1.98-.58zm-11.44.495c-1.403.083-1.652-1.074-2.148-1.982-.412-1.483-.496-3.63.413-4.95.66-1.072 1.817-1.732 3.053-2.063.25 2.476-.082 5.365.25 7.76-.332.74-.824 1.07-1.57 1.236z"/></g></svg>